<?xml version="1.0" encoding="UTF-8" standalone="no"?>
<!-- Created with Inkscape (http://www.inkscape.org/) -->
<svg
   xmlns:dc="http://purl.org/dc/elements/1.1/"
   xmlns:cc="http://web.resource.org/cc/"
   xmlns:rdf="http://www.w3.org/1999/02/22-rdf-syntax-ns#"
   xmlns:svg="http://www.w3.org/2000/svg"
   xmlns="http://www.w3.org/2000/svg"
   xmlns:sodipodi="http://sodipodi.sourceforge.net/DTD/sodipodi-0.dtd"
   xmlns:inkscape="http://www.inkscape.org/namespaces/inkscape"
   width="837.45111"
   height="615.90265"
   id="svg2"
   sodipodi:version="0.32"
   inkscape:version="0.45.1"
   version="1.0"
   sodipodi:docbase="C:\Documents and Settings\yu87t3fk\workspace\Lucrare de Diploma\figures"
   sodipodi:docname="corners.svg"
   inkscape:output_extension="org.inkscape.output.svg.inkscape">
  <defs
     id="defs4">
    <marker
       style="overflow:visible"
       inkscape:stockid="InfiniteLineEnd"
       id="InfiniteLineEnd"
       refX="0"
       refY="0"
       orient="auto">
      <g
         id="g5324">
        <circle
           id="circle5326"
           r="0.80000001"
           cy="0"
           cx="3"
           sodipodi:cx="3"
           sodipodi:cy="0"
           sodipodi:rx="0.80000001"
           sodipodi:ry="0.80000001" />
        <circle
           id="circle5328"
           r="0.80000001"
           cy="0"
           cx="6.5"
           sodipodi:cx="6.5"
           sodipodi:cy="0"
           sodipodi:rx="0.80000001"
           sodipodi:ry="0.80000001" />
        <circle
           id="circle5330"
           r="0.80000001"
           cy="0"
           cx="10"
           sodipodi:cx="10"
           sodipodi:cy="0"
           sodipodi:rx="0.80000001"
           sodipodi:ry="0.80000001" />
      </g>
    </marker>
    <marker
       inkscape:stockid="Arrow1Mend"
       orient="auto"
       refY="0"
       refX="0"
       id="Arrow1Mend"
       style="overflow:visible">
      <path
         id="path5160"
         d="M 0,0 L 5,-5 L -12.5,0 L 5,5 L 0,0 z "
         style="fill-rule:evenodd;stroke:#000000;stroke-width:1pt;marker-start:none"
         transform="matrix(-0.4,0,0,-0.4,-4,0)" />
    </marker>
    <marker
       inkscape:stockid="Arrow1Mstart"
       orient="auto"
       refY="0"
       refX="0"
       id="Arrow1Mstart"
       style="overflow:visible">
      <path
         id="path5157"
         d="M 0,0 L 5,-5 L -12.5,0 L 5,5 L 0,0 z "
         style="fill-rule:evenodd;stroke:#000000;stroke-width:1pt;marker-start:none"
         transform="matrix(0.4,0,0,0.4,4,0)" />
    </marker>
    <marker
       inkscape:stockid="Arrow2Mstart"
       orient="auto"
       refY="0"
       refX="0"
       id="Arrow2Mstart"
       style="overflow:visible">
      <path
         id="path5175"
         style="font-size:12px;fill-rule:evenodd;stroke-width:0.625;stroke-linejoin:round"
         d="M 8.7185878,4.0337352 L -2.2072895,0.016013256 L 8.7185884,-4.0017078 C 6.97309,-1.6296469 6.9831476,1.6157441 8.7185878,4.0337352 z "
         transform="scale(0.6,0.6)" />
    </marker>
    <marker
       inkscape:stockid="Tail"
       orient="auto"
       refY="0"
       refX="0"
       id="Tail"
       style="overflow:visible">
      <g
         id="g5187"
         transform="scale(-1.2,-1.2)">
        <path
           id="path5189"
           d="M -3.8048674,-3.9585227 L 0.54352094,0"
           style="fill:none;fill-rule:evenodd;stroke:#000000;stroke-width:0.80000001;stroke-linecap:round;marker-start:none;marker-end:none" />
        <path
           id="path5191"
           d="M -1.2866832,-3.9585227 L 3.0617053,0"
           style="fill:none;fill-rule:evenodd;stroke:#000000;stroke-width:0.80000001;stroke-linecap:round;marker-start:none;marker-end:none" />
        <path
           id="path5193"
           d="M 1.3053582,-3.9585227 L 5.6537466,0"
           style="fill:none;fill-rule:evenodd;stroke:#000000;stroke-width:0.80000001;stroke-linecap:round;marker-start:none;marker-end:none" />
        <path
           id="path5195"
           d="M -3.8048674,4.1775838 L 0.54352094,0.21974226"
           style="fill:none;fill-rule:evenodd;stroke:#000000;stroke-width:0.80000001;stroke-linecap:round;marker-start:none;marker-end:none" />
        <path
           id="path5197"
           d="M -1.2866832,4.1775838 L 3.0617053,0.21974226"
           style="fill:none;fill-rule:evenodd;stroke:#000000;stroke-width:0.80000001;stroke-linecap:round;marker-start:none;marker-end:none" />
        <path
           id="path5199"
           d="M 1.3053582,4.1775838 L 5.6537466,0.21974226"
           style="fill:none;fill-rule:evenodd;stroke:#000000;stroke-width:0.80000001;stroke-linecap:round;marker-start:none;marker-end:none" />
      </g>
    </marker>
    <marker
       inkscape:stockid="Arrow2Lend"
       orient="auto"
       refY="0"
       refX="0"
       id="Arrow2Lend"
       style="overflow:visible">
      <path
         id="path5172"
         style="font-size:12px;fill-rule:evenodd;stroke-width:0.625;stroke-linejoin:round"
         d="M 8.7185878,4.0337352 L -2.2072895,0.016013256 L 8.7185884,-4.0017078 C 6.97309,-1.6296469 6.9831476,1.6157441 8.7185878,4.0337352 z "
         transform="matrix(-1.1,0,0,-1.1,-1.1,0)" />
    </marker>
    <marker
       inkscape:stockid="Arrow1Lstart"
       orient="auto"
       refY="0"
       refX="0"
       id="Arrow1Lstart"
       style="overflow:visible">
      <path
         id="path5151"
         d="M 0,0 L 5,-5 L -12.5,0 L 5,5 L 0,0 z "
         style="fill-rule:evenodd;stroke:#000000;stroke-width:1pt;marker-start:none"
         transform="matrix(0.8,0,0,0.8,10,0)" />
    </marker>
    <marker
       inkscape:stockid="Arrow1Lend"
       orient="auto"
       refY="0"
       refX="0"
       id="Arrow1Lend"
       style="overflow:visible">
      <path
         id="path5154"
         d="M 0,0 L 5,-5 L -12.5,0 L 5,5 L 0,0 z "
         style="fill-rule:evenodd;stroke:#000000;stroke-width:1pt;marker-start:none"
         transform="matrix(-0.8,0,0,-0.8,-10,0)" />
    </marker>
  </defs>
  <sodipodi:namedview
     id="base"
     pagecolor="#ffffff"
     bordercolor="#666666"
     borderopacity="1.0"
     gridtolerance="10000"
     guidetolerance="10"
     objecttolerance="10"
     inkscape:pageopacity="0.0"
     inkscape:pageshadow="2"
     inkscape:zoom="1.4"
     inkscape:cx="321.79802"
     inkscape:cy="311.31587"
     inkscape:document-units="px"
     inkscape:current-layer="layer1"
     showgrid="false"
     inkscape:window-width="1280"
     inkscape:window-height="968"
     inkscape:window-x="-4"
     inkscape:window-y="-4" />
  <metadata
     id="metadata7">
    <rdf:RDF>
      <cc:Work
         rdf:about="">
        <dc:format>image/svg+xml</dc:format>
        <dc:type
           rdf:resource="http://purl.org/dc/dcmitype/StillImage" />
      </cc:Work>
    </rdf:RDF>
  </metadata>
  <g
     inkscape:label="Layer 1"
     inkscape:groupmode="layer"
     id="layer1"
     transform="translate(166.74003,-191.05517)">
    <path
       style="fill:none;fill-rule:evenodd;stroke:#000000;stroke-width:1;stroke-linecap:butt;stroke-linejoin:miter;stroke-miterlimit:4;stroke-dasharray:8, 2, 1, 2;stroke-dashoffset:0;stroke-opacity:1"
       d="M -41.24391,619.31523 L 109.61399,532.21738"
       id="path2160" />
    <path
       style="fill:none;fill-rule:evenodd;stroke:#000000;stroke-width:1;stroke-linecap:butt;stroke-linejoin:miter;stroke-miterlimit:4;stroke-dasharray:none;stroke-opacity:1"
       d="M 38.926529,538.62715 L 94.839933,506.34553"
       id="path2162" />
    <path
       style="fill:none;fill-rule:evenodd;stroke:#000000;stroke-width:1;stroke-linecap:butt;stroke-linejoin:miter;stroke-miterlimit:4;stroke-dasharray:none;stroke-opacity:1"
       d="M 29.74912,612.72904 L 124.62028,557.95516"
       id="path2164" />
    <path
       style="fill:#ff0000;fill-rule:evenodd;stroke:#ff0000;stroke-width:1px;stroke-linecap:butt;stroke-linejoin:miter;stroke-opacity:1"
       d="M 134.99911,575.2963 L 84.999109,488.69376"
       id="path3136" />
    <path
       style="fill:#ff0000;fill-rule:evenodd;stroke:#ff0000;stroke-width:1px;stroke-linecap:butt;stroke-linejoin:miter;stroke-opacity:1"
       d="M 212.75838,530.97932 L 162.75838,444.37677"
       id="path3138" />
    <path
       style="fill:none;fill-rule:evenodd;stroke:#000000;stroke-width:1;stroke-linecap:butt;stroke-linejoin:miter;stroke-miterlimit:4;stroke-dasharray:8, 2, 1, 2;stroke-dashoffset:0;stroke-opacity:1"
       d="M 187.45469,487.27604 L 347.77678,394.71404"
       id="path3140" />
    <path
       style="fill:none;fill-rule:evenodd;stroke:#000000;stroke-width:1;stroke-linecap:butt;stroke-linejoin:miter;stroke-miterlimit:4;stroke-dasharray:none;stroke-opacity:1"
       d="M 172.45938,461.61717 L 332.78147,369.05517"
       id="path3142" />
    <path
       style="fill:none;fill-rule:evenodd;stroke:#000000;stroke-width:1;stroke-linecap:butt;stroke-linejoin:miter;stroke-miterlimit:4;stroke-dasharray:none;stroke-opacity:1"
       d="M 202.45001,512.93491 L 362.7721,420.37291"
       id="path3144" />
    <path
       style="fill:#ff0000;fill-rule:evenodd;stroke:#ff0000;stroke-width:1px;stroke-linecap:butt;stroke-linejoin:miter;stroke-opacity:1"
       d="M 372.97308,438.47932 L 322.97308,351.87677"
       id="path3146" />
    <path
       style="fill:none;fill-rule:evenodd;stroke:#000000;stroke-width:1;stroke-linecap:butt;stroke-linejoin:miter;stroke-miterlimit:4;stroke-dasharray:8, 2, 1, 2;stroke-dashoffset:0;stroke-opacity:1"
       d="M 494.89371,309.77604 L 655.2158,217.21404"
       id="path3150" />
    <path
       style="fill:none;fill-rule:evenodd;stroke:#000000;stroke-width:1;stroke-linecap:butt;stroke-linejoin:miter;stroke-miterlimit:4;stroke-dasharray:none;stroke-opacity:1"
       d="M 479.8984,284.11717 L 640.22048,191.55517"
       id="path3152" />
    <path
       style="fill:none;fill-rule:evenodd;stroke:#000000;stroke-width:1;stroke-linecap:butt;stroke-linejoin:miter;stroke-miterlimit:4;stroke-dasharray:none;stroke-opacity:1"
       d="M 509.88903,335.43491 L 670.21111,242.87291"
       id="path3154" />
    <path
       style="fill:#ff0000;fill-rule:evenodd;stroke:#ff0000;stroke-width:1px;stroke-linecap:butt;stroke-linejoin:miter;stroke-opacity:1"
       d="M 520.1974,353.47932 L 470.1974,266.87677"
       id="path3156" />
    <path
       sodipodi:type="arc"
       style="fill:#ff0000;fill-opacity:1;fill-rule:nonzero;stroke:none;stroke-width:1;stroke-miterlimit:4;stroke-dasharray:8, 2, 1, 2;stroke-dashoffset:0;stroke-opacity:1"
       id="path3158"
       sodipodi:cx="110.53571"
       sodipodi:cy="343.96933"
       sodipodi:rx="2.3214285"
       sodipodi:ry="2.3214285"
       d="M 112.85714 343.96933 A 2.3214285 2.3214285 0 1 1  108.21428,343.96933 A 2.3214285 2.3214285 0 1 1  112.85714 343.96933 z"
       transform="matrix(0.899334,-0.5192307,0.5192307,0.899334,-183.07425,254.30839)" />
    <path
       sodipodi:type="arc"
       style="fill:#ff0000;fill-opacity:1;fill-rule:nonzero;stroke:none;stroke-width:1;stroke-miterlimit:4;stroke-dasharray:8, 2, 1, 2;stroke-dashoffset:0;stroke-opacity:1"
       id="path3160"
       sodipodi:cx="110.53571"
       sodipodi:cy="343.96933"
       sodipodi:rx="2.3214285"
       sodipodi:ry="2.3214285"
       d="M 112.85714 343.96933 A 2.3214285 2.3214285 0 1 1  108.21428,343.96933 A 2.3214285 2.3214285 0 1 1  112.85714 343.96933 z"
       transform="matrix(0.899334,-0.5192307,0.5192307,0.899334,-152.94352,305.78206)" />
    <path
       sodipodi:type="arc"
       style="fill:#ff0000;fill-opacity:1;fill-rule:nonzero;stroke:none;stroke-width:1;stroke-miterlimit:4;stroke-dasharray:8, 2, 1, 2;stroke-dashoffset:0;stroke-opacity:1"
       id="path3162"
       sodipodi:cx="110.53571"
       sodipodi:cy="343.96933"
       sodipodi:rx="2.3214285"
       sodipodi:ry="2.3214285"
       d="M 112.85714 343.96933 A 2.3214285 2.3214285 0 1 1  108.21428,343.96933 A 2.3214285 2.3214285 0 1 1  112.85714 343.96933 z"
       transform="matrix(0.899334,-0.5192307,0.5192307,0.899334,-105.13195,209.30841)" />
    <path
       sodipodi:type="arc"
       style="fill:#ff0000;fill-opacity:1;fill-rule:nonzero;stroke:none;stroke-width:1;stroke-miterlimit:4;stroke-dasharray:8, 2, 1, 2;stroke-dashoffset:0;stroke-opacity:1"
       id="path3164"
       sodipodi:cx="110.53571"
       sodipodi:cy="343.96933"
       sodipodi:rx="2.3214285"
       sodipodi:ry="2.3214285"
       d="M 112.85714 343.96933 A 2.3214285 2.3214285 0 1 1  108.21428,343.96933 A 2.3214285 2.3214285 0 1 1  112.85714 343.96933 z"
       transform="matrix(0.899334,-0.5192307,0.5192307,0.899334,-75.001236,260.78206)" />
    <path
       sodipodi:type="arc"
       style="fill:#ff0000;fill-opacity:1;fill-rule:nonzero;stroke:none;stroke-width:1;stroke-miterlimit:4;stroke-dasharray:8, 2, 1, 2;stroke-dashoffset:0;stroke-opacity:1"
       id="path3166"
       sodipodi:cx="110.53571"
       sodipodi:cy="343.96933"
       sodipodi:rx="2.3214285"
       sodipodi:ry="2.3214285"
       d="M 112.85714 343.96933 A 2.3214285 2.3214285 0 1 1  108.21428,343.96933 A 2.3214285 2.3214285 0 1 1  112.85714 343.96933 z"
       transform="matrix(0.899334,-0.5192307,0.5192307,0.899334,85.082738,168.76993)" />
    <path
       sodipodi:type="arc"
       style="fill:#ff0000;fill-opacity:1;fill-rule:nonzero;stroke:none;stroke-width:1;stroke-miterlimit:4;stroke-dasharray:8, 2, 1, 2;stroke-dashoffset:0;stroke-opacity:1"
       id="path3168"
       sodipodi:cx="110.53571"
       sodipodi:cy="343.96933"
       sodipodi:rx="2.3214285"
       sodipodi:ry="2.3214285"
       d="M 112.85714 343.96933 A 2.3214285 2.3214285 0 1 1  108.21428,343.96933 A 2.3214285 2.3214285 0 1 1  112.85714 343.96933 z"
       transform="matrix(0.899334,-0.5192307,0.5192307,0.899334,55.082739,116.80841)" />
    <path
       sodipodi:type="arc"
       style="fill:#ff0000;fill-opacity:1;fill-rule:nonzero;stroke:none;stroke-width:1;stroke-miterlimit:4;stroke-dasharray:8, 2, 1, 2;stroke-dashoffset:0;stroke-opacity:1"
       id="path3170"
       sodipodi:cx="110.53571"
       sodipodi:cy="343.96933"
       sodipodi:rx="2.3214285"
       sodipodi:ry="2.3214285"
       d="M 112.85714 343.96933 A 2.3214285 2.3214285 0 1 1  108.21428,343.96933 A 2.3214285 2.3214285 0 1 1  112.85714 343.96933 z"
       transform="matrix(0.899334,-0.5192307,0.5192307,0.899334,202.30706,31.80841)" />
    <path
       sodipodi:type="arc"
       style="fill:#ff0000;fill-opacity:1;fill-rule:nonzero;stroke:none;stroke-width:1;stroke-miterlimit:4;stroke-dasharray:8, 2, 1, 2;stroke-dashoffset:0;stroke-opacity:1"
       id="path3172"
       sodipodi:cx="110.53571"
       sodipodi:cy="343.96933"
       sodipodi:rx="2.3214285"
       sodipodi:ry="2.3214285"
       d="M 112.85714 343.96933 A 2.3214285 2.3214285 0 1 1  108.21428,343.96933 A 2.3214285 2.3214285 0 1 1  112.85714 343.96933 z"
       transform="matrix(0.899334,-0.5192307,0.5192307,0.899334,232.43778,83.282056)" />
    <path
       sodipodi:type="arc"
       style="fill:#000000;fill-opacity:1;fill-rule:nonzero;stroke:none;stroke-width:1;stroke-miterlimit:4;stroke-dasharray:8, 2, 1, 2;stroke-dashoffset:0;stroke-opacity:1"
       id="path3174"
       sodipodi:cx="110.53571"
       sodipodi:cy="343.96933"
       sodipodi:rx="2.3214285"
       sodipodi:ry="2.3214285"
       d="M 112.85714 343.96933 A 2.3214285 2.3214285 0 1 1  108.21428,343.96933 A 2.3214285 2.3214285 0 1 1  112.85714 343.96933 z"
       transform="matrix(0.899334,-0.5192307,0.5192307,0.899334,-167.94352,279.8013)" />
    <path
       sodipodi:type="arc"
       style="fill:#000000;fill-opacity:1;fill-rule:nonzero;stroke:none;stroke-width:1;stroke-miterlimit:4;stroke-dasharray:8, 2, 1, 2;stroke-dashoffset:0;stroke-opacity:1"
       id="path3176"
       sodipodi:cx="110.53571"
       sodipodi:cy="343.96933"
       sodipodi:rx="2.3214285"
       sodipodi:ry="2.3214285"
       d="M 112.85714 343.96933 A 2.3214285 2.3214285 0 1 1  108.21428,343.96933 A 2.3214285 2.3214285 0 1 1  112.85714 343.96933 z"
       transform="matrix(0.899334,-0.5192307,0.5192307,0.899334,-90.131952,235.28917)" />
    <path
       sodipodi:type="arc"
       style="fill:#000000;fill-opacity:1;fill-rule:nonzero;stroke:none;stroke-width:1;stroke-miterlimit:4;stroke-dasharray:8, 2, 1, 2;stroke-dashoffset:0;stroke-opacity:1"
       id="path3178"
       sodipodi:cx="110.53571"
       sodipodi:cy="343.96933"
       sodipodi:rx="2.3214285"
       sodipodi:ry="2.3214285"
       d="M 112.85714 343.96933 A 2.3214285 2.3214285 0 1 1  108.21428,343.96933 A 2.3214285 2.3214285 0 1 1  112.85714 343.96933 z"
       transform="matrix(0.899334,-0.5192307,0.5192307,0.899334,70.082739,142.78917)" />
    <path
       sodipodi:type="arc"
       style="fill:#000000;fill-opacity:1;fill-rule:nonzero;stroke:none;stroke-width:1;stroke-miterlimit:4;stroke-dasharray:8, 2, 1, 2;stroke-dashoffset:0;stroke-opacity:1"
       id="path3180"
       sodipodi:cx="110.53571"
       sodipodi:cy="343.96933"
       sodipodi:rx="2.3214285"
       sodipodi:ry="2.3214285"
       d="M 112.85714 343.96933 A 2.3214285 2.3214285 0 1 1  108.21428,343.96933 A 2.3214285 2.3214285 0 1 1  112.85714 343.96933 z"
       transform="matrix(0.899334,-0.5192307,0.5192307,0.899334,217.30706,57.789172)" />
    <path
       style="fill:none;fill-rule:evenodd;stroke:#000000;stroke-width:1;stroke-linecap:butt;stroke-linejoin:miter;stroke-miterlimit:4;stroke-dasharray:8, 2, 1, 2;stroke-dashoffset:0;stroke-opacity:1"
       d="M -34.66885,623.86791 L 158.75397,288.84973"
       id="path3184" />
    <path
       style="fill:none;fill-rule:evenodd;stroke:#000000;stroke-width:1;stroke-linecap:butt;stroke-linejoin:miter;stroke-miterlimit:4;stroke-dasharray:none;stroke-opacity:1"
       d="M -76.556497,637.44342 L 149.04238,246.69471"
       id="path3186" />
    <path
       style="fill:none;fill-rule:evenodd;stroke:#000000;stroke-width:1;stroke-linecap:butt;stroke-linejoin:miter;stroke-miterlimit:4;stroke-dasharray:none;stroke-opacity:1"
       d="M 42.632372,548.95427 L 133.05198,392.34289"
       id="path3188" />
    <path
       sodipodi:type="arc"
       style="fill:#000000;fill-opacity:1;fill-rule:nonzero;stroke:none;stroke-width:1;stroke-miterlimit:4;stroke-dasharray:8, 2, 1, 2;stroke-dashoffset:0;stroke-opacity:1"
       id="path3190"
       sodipodi:cx="110.53571"
       sodipodi:cy="343.96933"
       sodipodi:rx="2.3214285"
       sodipodi:ry="2.3214285"
       d="M 112.85714 343.96933 A 2.3214285 2.3214285 0 1 1  108.21428,343.96933 A 2.3214285 2.3214285 0 1 1  112.85714 343.96933 z"
       transform="matrix(0.899334,-0.5192307,0.5192307,0.899334,-304.77553,358.8013)" />
    <path
       sodipodi:type="arc"
       style="fill:#ff0000;fill-opacity:1;fill-rule:nonzero;stroke:none;stroke-width:1;stroke-miterlimit:4;stroke-dasharray:8, 2, 1, 2;stroke-dashoffset:0;stroke-opacity:1"
       id="path3192"
       sodipodi:cx="110.53571"
       sodipodi:cy="343.96933"
       sodipodi:rx="2.3214285"
       sodipodi:ry="2.3214285"
       d="M 112.85714 343.96933 A 2.3214285 2.3214285 0 1 1  108.21428,343.96933 A 2.3214285 2.3214285 0 1 1  112.85714 343.96933 z"
       transform="matrix(0.899334,-0.5192307,0.5192307,0.899334,-226.24479,278.82053)" />
    <path
       style="fill:none;fill-rule:evenodd;stroke:#000000;stroke-width:0.94296914;stroke-linecap:butt;stroke-linejoin:miter;stroke-miterlimit:4;stroke-dasharray:7.54375249, 1.88593813, 0.94296906, 1.88593813;stroke-dashoffset:0;stroke-opacity:1"
       d="M -41.938637,607.30158 L 557.89324,768.02605"
       id="path3196" />
    <path
       style="fill:none;fill-rule:evenodd;stroke:#000000;stroke-width:1;stroke-linecap:butt;stroke-linejoin:miter;stroke-miterlimit:4;stroke-dasharray:none;stroke-opacity:1"
       d="M 32.526414,596.77279 L 497.46788,721.3535"
       id="path3198" />
    <path
       style="fill:none;fill-rule:evenodd;stroke:#000000;stroke-width:1;stroke-linecap:butt;stroke-linejoin:miter;stroke-miterlimit:4;stroke-dasharray:none;stroke-opacity:1"
       d="M -85.64853,626.07118 L 587.56347,806.45779"
       id="path3200" />
    <path
       sodipodi:type="arc"
       style="fill:#ff0000;fill-opacity:1;fill-rule:nonzero;stroke:none;stroke-width:1;stroke-miterlimit:4;stroke-dasharray:8, 2, 1, 2;stroke-dashoffset:0;stroke-opacity:1"
       id="path3202"
       sodipodi:cx="110.53571"
       sodipodi:cy="343.96933"
       sodipodi:rx="2.3214285"
       sodipodi:ry="2.3214285"
       d="M 112.85714 343.96933 A 2.3214285 2.3214285 0 1 1  108.21428,343.96933 A 2.3214285 2.3214285 0 1 1  112.85714 343.96933 z"
       transform="matrix(0.899334,-0.5192307,0.5192307,0.899334,-350.71078,377.23912)" />
    <path
       sodipodi:type="arc"
       style="fill:#ff0000;fill-opacity:1;fill-rule:nonzero;stroke:none;stroke-width:1;stroke-miterlimit:4;stroke-dasharray:8, 2, 1, 2;stroke-dashoffset:0;stroke-opacity:1"
       id="path3206"
       sodipodi:cx="110.53571"
       sodipodi:cy="343.96933"
       sodipodi:rx="2.3214285"
       sodipodi:ry="2.3214285"
       d="M 112.85714 343.96933 A 2.3214285 2.3214285 0 1 1  108.21428,343.96933 A 2.3214285 2.3214285 0 1 1  112.85714 343.96933 z"
       transform="matrix(0.899334,-0.5192307,0.5192307,0.899334,-228.41846,349.76993)" />
    <path
       sodipodi:type="arc"
       style="fill:none;fill-opacity:1;fill-rule:nonzero;stroke:#000000;stroke-width:1;marker-start:url(#Arrow1Mstart);marker-mid:url(#Arrow2Mstart);marker-end:url(#InfiniteLineEnd);stroke-miterlimit:4;stroke-dasharray:none;stroke-dashoffset:0;stroke-opacity:1"
       id="path3208"
       sodipodi:cx="-8.5714283"
       sodipodi:cy="433.07648"
       sodipodi:rx="139.28572"
       sodipodi:ry="139.28572"
       d="M 40.399716,563.46949 A 139.28572,139.28572 0 1 1 70.940795,318.716"
       sodipodi:start="1.2115298"
       sodipodi:end="5.3199382"
       sodipodi:open="true"
       transform="matrix(0.8660254,-0.5,0.5,0.8660254,-236.08579,232.5584)" />
  </g>
</svg>
